<svg id="Capa_1" data-name="Capa 1" xmlns="http://www.w3.org/2000/svg" viewBox="0 0 884.34 610.51"><defs><style>.cls-1{fill:#d90062;}</style></defs><path class="cls-1" d="M27.55,480.11,781.14,9.22c26-16.26,59-10.45,73.6,13l22.65,36.24C892,81.85,882.8,114,856.78,130.27L103.19,601.16c-26,16.26-59,10.45-73.59-13L7,552C-7.68,528.53,1.54,496.37,27.55,480.11Z"/><path class="cls-1" d="M877.39,552.08l-22.65,36.24c-14.63,23.42-47.58,29.23-73.6,13L27.55,130.4C1.54,114.14-7.68,82,7,58.56L29.6,22.32C44.23-1.1,77.18-6.91,103.19,9.35L856.78,480.24C882.8,496.5,892,528.66,877.39,552.08Z"/></svg>